<?xml version="1.0" encoding="UTF-8" standalone="no"?>
<!-- Created with Inkscape (http://www.inkscape.org/) -->

<svg
   xmlns:dc="http://purl.org/dc/elements/1.1/"
   xmlns:cc="http://creativecommons.org/ns#"
   xmlns:rdf="http://www.w3.org/1999/02/22-rdf-syntax-ns#"
   xmlns:svg="http://www.w3.org/2000/svg"
   xmlns="http://www.w3.org/2000/svg"
   xmlns:xlink="http://www.w3.org/1999/xlink"
   xmlns:sodipodi="http://sodipodi.sourceforge.net/DTD/sodipodi-0.dtd"
   xmlns:inkscape="http://www.inkscape.org/namespaces/inkscape"
   version="1.0"
   width="480"
   height="480"
   viewBox="0 0 480.00001 480.00001"
   id="Layer_1"
   xml:space="preserve"
   sodipodi:docname="bad.svg"
   inkscape:version="0.92.5 (2060ec1f9f, 2020-04-08)"
   inkscape:export-filename="/home/jabjoe/Work/Data/Autoheat/mockup/images/usb_bad.png"
   inkscape:export-xdpi="12.8"
   inkscape:export-ydpi="12.8"><metadata
   id="metadata865"><rdf:RDF><cc:Work
       rdf:about=""><dc:format>image/svg+xml</dc:format><dc:type
         rdf:resource="http://purl.org/dc/dcmitype/StillImage" /><dc:title /></cc:Work></rdf:RDF></metadata><sodipodi:namedview
   pagecolor="#ffffff"
   bordercolor="#666666"
   borderopacity="1"
   objecttolerance="10"
   gridtolerance="10"
   guidetolerance="10"
   inkscape:pageopacity="0"
   inkscape:pageshadow="2"
   inkscape:window-width="1920"
   inkscape:window-height="1149"
   id="namedview863"
   showgrid="false"
   fit-margin-top="0"
   fit-margin-left="0"
   fit-margin-right="0"
   fit-margin-bottom="0"
   inkscape:zoom="1.1646295"
   inkscape:cx="82.376815"
   inkscape:cy="247.54715"
   inkscape:window-x="0"
   inkscape:window-y="27"
   inkscape:window-maximized="1"
   inkscape:current-layer="Layer_1" /><defs
   id="defs1337"><linearGradient
     inkscape:collect="always"
     id="linearGradient5153"><stop
       style="stop-color:#ff0000;stop-opacity:1;"
       offset="0"
       id="stop5149" /><stop
       style="stop-color:#ff0000;stop-opacity:0;"
       offset="1"
       id="stop5151" /></linearGradient><radialGradient
     inkscape:collect="always"
     xlink:href="#linearGradient5153"
     id="radialGradient5297"
     cx="244.698"
     cy="203.46666"
     fx="244.698"
     fy="203.46666"
     r="228.75604"
     gradientTransform="matrix(1.041344,0,0,1.0402728,-7.5878501,-16.591862)"
     gradientUnits="userSpaceOnUse" /><radialGradient
     inkscape:collect="always"
     xlink:href="#linearGradient5153"
     id="radialGradient833"
     cx="247.10619"
     cy="190.24747"
     fx="247.10619"
     fy="190.24747"
     r="228.75604"
     gradientTransform="matrix(1.5667791,-0.01501412,0.00748693,0.78128865,-142.03454,46.212271)"
     gradientUnits="userSpaceOnUse" /><filter
     inkscape:collect="always"
     style="color-interpolation-filters:sRGB"
     id="filter973"
     x="-0.0068929378"
     width="1.0137859"
     y="-0.0075356954"
     height="1.0150714"><feGaussianBlur
       inkscape:collect="always"
       stdDeviation="1.2292682"
       id="feGaussianBlur975" /></filter><filter
     inkscape:collect="always"
     style="color-interpolation-filters:sRGB"
     id="filter1077"
     x="-0.0068929378"
     width="1.0137859"
     y="-0.0075356954"
     height="1.0150714"><feGaussianBlur
       inkscape:collect="always"
       stdDeviation="1.2292682"
       id="feGaussianBlur1079" /></filter></defs>

<path
   style="fill:none;fill-rule:evenodd;stroke:url(#radialGradient833);stroke-width:75.59055118;stroke-linecap:round;stroke-linejoin:miter;stroke-miterlimit:4;stroke-dasharray:none;stroke-opacity:1;opacity:1;filter:url(#filter1077)"
   d="m 34.911222,432.03502 c 0.303576,-0.50596 0.646851,-0.99013 0.910728,-1.51788 0.566828,-1.13366 0.428359,-2.48523 0.910727,-3.64291 0.348111,-0.83547 0.826848,-1.61065 1.214304,-2.42861 3.10773,-6.56076 -0.249043,0.0116 3.64291,-7.28582 0.915984,-1.71747 1.704577,-3.50768 2.732182,-5.16079 1.304214,-2.09808 2.814165,-4.06126 4.250062,-6.07152 5.107168,-7.15003 5.231663,-7.16545 10.928731,-14.57164 8.194495,-10.65284 4.142188,-5.19191 12.143033,-16.39309 8.259622,-11.56347 4.012422,-5.69227 12.750186,-17.6074 2.226223,-3.03576 4.388193,-6.1197 6.678669,-9.10728 2.365379,-3.08527 4.87985,-6.05354 7.28582,-9.10727 2.856136,-3.6251 5.555626,-7.37503 8.500126,-10.92873 1.21339,-1.46445 17.86988,-20.18312 18.8217,-21.25031 3.43444,-3.85073 6.77029,-7.79264 10.32158,-11.53588 3.93979,-4.15276 8.09535,-8.09536 12.14303,-12.14304 4.25006,-4.25006 8.50013,-8.50012 12.75019,-12.75018 13.2152,-13.21521 16.26764,-16.44327 30.35758,-29.75044 5.41412,-5.11333 10.92492,-10.12331 16.3931,-15.17879 5.25817,-4.86133 10.42232,-9.8269 15.78594,-14.57164 2.87314,-2.54162 27.72213,-23.38373 30.96474,-26.10752 5.0596,-4.25006 10.06922,-8.56034 15.17879,-12.75019 7.21655,-5.91757 25.19888,-20.07136 32.17904,-25.50037 9.92861,-7.72225 20.2332,-15.58852 30.35758,-23.07176 4.42735,-3.27238 8.89146,-6.49484 13.35734,-9.71443 6.03973,-4.35422 18.62279,-13.32515 24.89322,-17.607398 13.3851,-9.141047 11.23552,-7.448094 24.28607,-15.785944 3.45334,-2.206299 6.89549,-4.430296 10.32158,-6.678669 3.05034,-2.001788 6.00734,-4.147419 9.10727,-6.071517 2.77267,-1.720965 5.70183,-3.178237 8.50013,-4.857213 2.26272,-1.357633 4.38758,-2.940869 6.67867,-4.250062 0.0488,-0.02788 12.11013,-6.051577 12.14303,-6.071517 1.41935,-0.86021 2.58405,-2.087979 3.94648,-3.035758 3.698,-2.15345 12.9512,-6.477002 17.57509,-8.996955"
   id="path5141"
   inkscape:connector-curvature="0"
   sodipodi:nodetypes="ccccsccssscscscssscsssscsssscccccc" /><path
   sodipodi:nodetypes="ccccsccssscscscssscsssscsssscccccc"
   inkscape:connector-curvature="0"
   id="path5147"
   d="m 462.94903,432.03502 c -0.30358,-0.50596 -0.64685,-0.99013 -0.91073,-1.51788 -0.56683,-1.13366 -0.42836,-2.48523 -0.91073,-3.64291 -0.34811,-0.83547 -0.82684,-1.61065 -1.2143,-2.42861 -3.10773,-6.56076 0.24904,0.0116 -3.64291,-7.28582 -0.91598,-1.71747 -1.70458,-3.50768 -2.73218,-5.16079 -1.30422,-2.09808 -2.81417,-4.06126 -4.25006,-6.07152 -5.10717,-7.15003 -5.23167,-7.16545 -10.92874,-14.57164 -8.19449,-10.65284 -4.14218,-5.19191 -12.14303,-16.39309 -8.25962,-11.56347 -4.01242,-5.69227 -12.75018,-17.6074 -2.22623,-3.03576 -4.3882,-6.1197 -6.67867,-9.10728 -2.36538,-3.08527 -4.87985,-6.05354 -7.28582,-9.10727 -2.85614,-3.6251 -5.55563,-7.37503 -8.50013,-10.92873 -1.21339,-1.46445 -17.86988,-20.18312 -18.8217,-21.25031 -3.43444,-3.85073 -6.77029,-7.79264 -10.32158,-11.53588 -3.93979,-4.15276 -8.09535,-8.09536 -12.14303,-12.14304 -4.25006,-4.25006 -8.50013,-8.50012 -12.75019,-12.75018 -13.2152,-13.21521 -16.26764,-16.44327 -30.35758,-29.75044 -5.41412,-5.11333 -10.92492,-10.12331 -16.3931,-15.17879 -5.25817,-4.86133 -10.42232,-9.8269 -15.78594,-14.57164 -2.87314,-2.54162 -27.72213,-23.38373 -30.96474,-26.10752 -5.0596,-4.25006 -10.06922,-8.56034 -15.17879,-12.75019 -7.21655,-5.91757 -25.19888,-20.07136 -32.17904,-25.50037 -9.92861,-7.72225 -20.2332,-15.58852 -30.35758,-23.07176 -4.42735,-3.27238 -8.89146,-6.49484 -13.35734,-9.71443 -6.03973,-4.35422 -18.62279,-13.32515 -24.89322,-17.607403 -13.3851,-9.14104 -11.23552,-7.44809 -24.28607,-15.78594 -3.453339,-2.2063 -6.895489,-4.4303 -10.321579,-6.67867 -3.05034,-2.00179 -6.00734,-4.14742 -9.10727,-6.07152 -2.77267,-1.72096 -5.70183,-3.17823 -8.50013,-4.85721 -2.26272,-1.35763 -4.38758,-2.94087 -6.67867,-4.25006 -0.0488,-0.0279 -12.11013,-6.05158 -12.14303,-6.07152 -1.41935,-0.86021 -2.58405,-2.08798 -3.94648,-3.03576 -3.698,-2.15345 -12.9512,-6.477 -17.57509,-8.99695"
   style="fill:none;fill-rule:evenodd;stroke:url(#radialGradient5297);stroke-width:75.2125938;stroke-linecap:round;stroke-linejoin:miter;stroke-miterlimit:4;stroke-dasharray:none;stroke-opacity:1;opacity:1;filter:url(#filter973)" /></svg>